<?xml version="1.0" standalone="no"?>
<!DOCTYPE svg PUBLIC "-//W3C//DTD SVG 20010904//EN"
 "http://www.w3.org/TR/2001/REC-SVG-20010904/DTD/svg10.dtd">
<svg version="1.0" xmlns="http://www.w3.org/2000/svg"
 width="178.000000pt" height="142.000000pt" viewBox="0 0 178.000000 142.000000"
 preserveAspectRatio="xMidYMid meet">

<g transform="translate(0.000000,142.000000) scale(0.100000,-0.100000)"
fill="#fff" stroke="none">
<path d="M753 1245 c-102 -23 -190 -72 -268 -150 -63 -62 -135 -171 -135 -204
0 -6 15 -11 34 -11 30 0 35 4 41 30 32 146 258 146 290 0 l7 -30 154 0 c134 0
154 2 154 16 0 32 33 84 65 104 42 26 120 27 159 1 35 -24 66 -69 66 -98 0
-20 5 -23 40 -23 22 0 40 3 40 6 0 3 -16 37 -36 74 -113 216 -377 339 -611
285z m205 -73 c64 -46 80 -145 33 -210 -27 -39 -98 -67 -146 -58 -49 9 -102
59 -115 107 -20 72 20 149 90 178 36 16 104 7 138 -17z"/>
<path d="M158 853 c-16 -4 -18 -20 -18 -154 l0 -149 54 0 55 0 3 48 3 47 26
-55 26 -55 27 53 c14 28 27 52 29 52 1 0 1 -20 -1 -45 l-4 -45 61 0 61 0 0
155 0 155 -52 -3 c-53 -2 -53 -2 -83 -54 -16 -29 -32 -52 -35 -52 -3 -1 -19
23 -35 52 -27 46 -35 52 -65 54 -19 0 -43 -1 -52 -4z"/>
<path d="M610 853 c-24 -9 -70 -55 -86 -85 -8 -15 -14 -45 -14 -68 0 -49 17
-84 59 -124 24 -23 42 -30 84 -34 103 -8 177 55 177 151 0 100 -54 159 -149
164 -31 1 -63 0 -71 -4z m94 -119 c30 -29 9 -84 -31 -84 -21 0 -53 29 -53 48
0 22 30 52 51 52 10 0 25 -7 33 -16z"/>
<path d="M862 778 c4 -57 13 -90 42 -150 l37 -78 55 0 55 0 45 94 c36 76 44
104 44 150 l0 56 -60 0 -60 0 0 -54 c0 -30 -5 -67 -11 -83 -16 -42 -29 -11
-29 70 l0 67 -61 0 -61 0 4 -72z"/>
<path d="M1170 700 l0 -150 60 0 60 0 0 150 0 150 -60 0 -60 0 0 -150z"/>
<path d="M1330 701 l0 -149 108 -4 c59 -2 110 -1 114 2 4 3 10 24 14 48 l7 42
-62 0 c-34 0 -61 4 -61 10 0 6 23 10 50 10 49 0 50 1 52 30 0 17 1 36 2 43 1
8 -13 11 -45 9 -26 -2 -50 1 -54 7 -4 7 12 11 49 11 l56 0 0 45 0 45 -115 0
-115 0 0 -149z"/>
<path d="M350 509 c0 -30 72 -141 130 -199 153 -154 372 -206 575 -135 148 52
271 167 330 308 l15 37 -40 0 c-34 0 -40 -3 -40 -21 0 -12 -9 -36 -20 -54 -46
-74 -161 -87 -225 -25 -20 19 -37 48 -41 67 l-6 33 -154 0 -154 0 -6 -27 c-4
-16 -16 -40 -26 -56 -69 -98 -237 -64 -263 53 -6 26 -11 30 -41 30 -19 0 -34
-5 -34 -11z m614 -43 c60 -45 73 -141 27 -205 -27 -38 -98 -66 -146 -57 -49 9
-102 59 -115 107 -20 72 20 149 90 178 40 17 106 6 144 -23z"/>
<path d="M1659 385 c-52 -19 -87 -38 -239 -126 -74 -43 -165 -90 -203 -104
-80 -30 -214 -55 -306 -56 l-66 -1 55 -15 c37 -9 88 -12 160 -10 95 4 121 10
280 63 l175 58 127 1 128 0 0 103 0 102 -37 -1 c-21 0 -54 -6 -74 -14z"/>
</g>
</svg>
